# xmcd
#
# Track frame offsets:
# 150
# 13422
# 28479
# 43469
# 58542
# 72988
# 90441
# 107040
# 124021
# 137518
#
# Disc length: 2076 seconds
#
#
# Revision: 2
# Processed by: cddbd v1.5.1PL2 Copyright (c) Steve Scherf et al.
# Submitted via: FreeRIP 2.944 
#
DISCID=90081a0a
DTITLE=Neal McCoy - Neal McCoy
DYEAR=1996
DGENRE=Country
TTITLE0=That woman of mine
TTITLE1=Then you can tell me goodbye
TTITLE2=Me too
TTITLE3=It should've happened that way
TTITLE4=I ain't complainin'
TTITLE5=Going, going, gone
TTITLE6=Betcha can't do that again
TTITLE7=She can
TTITLE8=If it hadn't been so good
TTITLE9=Hillbilly rap
EXTD=
EXTT0=
EXTT1=
EXTT2=
EXTT3=
EXTT4=
EXTT5=
EXTT6=
EXTT7=
EXTT8=
EXTT9=
PLAYORDER=
